ply
format ascii 1.0
comment Created by asdf
element vertex 650
property float x
property float y
property float z
property float nx
property float ny
property float nz
element face 680
property list uchar uint vertex_indices
end_header
1.844507 -0.000000 0.707107 0.704031 0.000000 0.710135
1.968870 -0.000000 0.555571 0.828639 0.000000 0.559771
1.968870 0.108386 0.544895 0.828639 0.109195 0.548997
1.844507 0.137950 0.693520 0.704031 0.138524 0.696493
-2.256258 -0.000000 0.195090 -0.977203 0.000000 0.212165
-2.199353 -0.000000 0.382683 -0.921690 0.000000 0.387860
-2.199353 0.074658 0.375330 -0.921690 0.075655 0.380413
-2.256258 0.038060 0.191342 -0.977233 0.041383 0.208075
2.061280 -0.000000 0.382684 0.921690 0.000000 0.387860
2.118185 -0.000000 0.195091 0.977355 0.000000 0.211585
2.118185 0.038060 0.191342 0.977355 0.041261 0.207526
2.061280 0.074658 0.375331 0.921690 0.075655 0.380413
-2.106943 -0.000000 0.555570 -0.828639 0.000000 0.559771
-1.982580 -0.000000 0.707107 -0.704031 0.000000 0.710135
-1.982580 0.137950 0.693520 -0.704031 0.138524 0.696493
-2.106943 0.108386 0.544895 -0.828639 0.109195 0.548997
-1.831043 -0.000000 0.831470 -0.552751 0.000000 0.833338
-1.658156 -0.000000 0.923880 -0.380535 0.000000 0.924741
-1.658156 0.180240 0.906128 -0.380535 0.180395 0.906980
-1.831043 0.162212 0.815493 -0.552751 0.162572 0.817316
-0.166581 -0.000000 0.990393 -0.007355 0.000000 0.999969
1.137400 -0.000000 1.000000 0.045228 0.000000 0.998962
1.137400 0.195090 0.980786 0.045228 0.194861 0.979766
-0.166581 0.193216 0.971363 -0.007355 0.195074 0.980743
1.332491 -0.000000 0.980786 0.193915 0.000000 0.980987
1.520084 -0.000000 0.923880 0.380535 0.000000 0.924741
1.520084 0.180240 0.906128 0.380535 0.180395 0.906980
1.332491 0.191342 0.961940 0.193915 0.191382 0.962157
1.692970 -0.000000 0.831470 0.552751 0.000000 0.833338
1.692970 0.162212 0.815494 0.552751 0.162572 0.817316
-1.470563 -0.000000 0.980785 -0.149052 0.000000 0.988800
-1.470563 0.191342 0.961940 -0.149052 0.192907 0.969817
-1.470563 0.375330 0.906127 -0.149052 0.378399 0.913541
-1.658156 0.353553 0.853553 -0.380535 0.353893 0.854366
1.332491 0.375330 0.906128 0.193915 0.375408 0.906339
1.137400 0.382683 0.923880 0.045228 0.382275 0.922910
1.692971 0.318190 0.768178 0.552751 0.318888 0.769890
1.520084 0.353553 0.853554 0.380535 0.353862 0.854366
1.968870 0.212608 0.513280 0.828639 0.214209 0.517136
1.844507 0.270598 0.653282 0.704031 0.271737 0.656056
-2.199353 0.146447 0.353553 -0.921690 0.148412 0.358348
-2.256258 0.074658 0.180240 -0.977203 0.081179 0.195990
2.118185 0.074658 0.180240 0.977355 0.080966 0.195471
2.061280 0.146447 0.353554 0.921690 0.148412 0.358348
-1.982580 0.270598 0.653281 -0.704031 0.271737 0.656056
-2.106943 0.212608 0.513280 -0.828639 0.214209 0.517136
-1.831043 0.318190 0.768178 -0.552751 0.318888 0.769890
-0.166581 0.379007 0.915004 -0.007355 0.382672 0.923826
-1.470563 0.544895 0.815493 -0.149052 0.549333 0.822169
-1.658156 0.513280 0.768178 -0.380535 0.513749 0.768914
1.332491 0.544895 0.815493 0.193915 0.545000 0.815668
1.137400 0.555570 0.831470 0.045228 0.554979 0.830592
1.692971 0.461940 0.691342 0.552751 0.462966 0.692892
1.520084 0.513280 0.768178 0.380535 0.513749 0.768914
1.968870 0.308658 0.461940 0.828639 0.310984 0.465407
1.844507 0.392848 0.587938 0.704031 0.394513 0.590442
-2.199353 0.212608 0.318190 -0.921690 0.215491 0.322489
-2.256258 0.108386 0.162211 -0.977233 0.117862 0.176397
2.118185 0.108386 0.162212 0.977355 0.117527 0.175909
2.061280 0.212608 0.318190 0.921690 0.215491 0.322489
-1.982580 0.392848 0.587938 -0.704031 0.394513 0.590442
-2.106943 0.308658 0.461940 -0.828639 0.310984 0.465407
-1.831043 0.461940 0.691342 -0.552751 0.462966 0.692892
-0.166581 0.550233 0.823481 -0.007355 0.555528 0.831446
-1.470563 0.693520 0.693520 -0.149052 0.699179 0.699179
-1.658156 0.653282 0.653282 -0.380535 0.653890 0.653890
1.332491 0.693520 0.693520 0.193915 0.693655 0.693655
1.137400 0.707107 0.707107 0.045228 0.706381 0.706381
1.692971 0.587938 0.587938 0.552751 0.589251 0.589251
1.520084 0.653282 0.653282 0.380535 0.653890 0.653890
1.968870 0.392848 0.392848 0.828639 0.395795 0.395795
1.844507 0.500000 0.500000 0.704031 0.502121 0.502121
-2.199353 0.270598 0.270598 -0.921690 0.274270 0.274270
-2.256258 0.137950 0.137949 -0.977233 0.149998 0.149998
2.118185 0.137950 0.137950 0.977355 0.149602 0.149602
2.061280 0.270598 0.270598 0.921690 0.274270 0.274270
-1.982580 0.500000 0.500000 -0.704031 0.502121 0.502121
-2.106943 0.392848 0.392847 -0.828639 0.395795 0.395795
-1.831043 0.587938 0.587938 -0.552751 0.589251 0.589251
-0.166581 0.700313 0.700313 -0.007355 0.707083 0.707083
-1.470563 0.815493 0.544895 -0.149052 0.822169 0.549333
-1.658156 0.768178 0.513280 -0.380535 0.768914 0.513749
1.332491 0.815493 0.544895 0.193915 0.815668 0.545000
1.137400 0.831470 0.555570 0.045228 0.830592 0.554979
1.692971 0.691342 0.461940 0.552751 0.692892 0.462966
1.520084 0.768178 0.513280 0.380535 0.768914 0.513749
1.968870 0.461940 0.308658 0.828639 0.465407 0.310984
1.844507 0.587938 0.392848 0.704031 0.590442 0.394513
-2.199353 0.318190 0.212607 -0.921690 0.322489 0.215491
-2.256258 0.162212 0.108386 -0.977203 0.176397 0.117862
2.118185 0.162212 0.108387 0.977355 0.175909 0.117527
2.061280 0.318190 0.212608 0.921690 0.322489 0.215491
-1.982580 0.587938 0.392847 -0.704031 0.590442 0.394513
-2.106943 0.461940 0.308658 -0.828639 0.465407 0.310984
-1.831043 0.691342 0.461940 -0.552751 0.692892 0.462966
-0.166581 0.823481 0.550233 -0.007355 0.831446 0.555528
-1.470563 0.906127 0.375330 -0.149052 0.913541 0.378399
-1.658156 0.853553 0.353553 -0.380535 0.854366 0.353862
1.332491 0.906127 0.375330 0.193915 0.906339 0.375408
1.137400 0.923880 0.382683 0.045228 0.922910 0.382275
1.692971 0.768178 0.318190 0.552751 0.769890 0.318888
1.520084 0.853553 0.353554 0.380535 0.854366 0.353862
1.968870 0.513280 0.212608 0.828639 0.517136 0.214209
1.844507 0.653282 0.270598 0.704031 0.656056 0.271737
-2.199353 0.353553 0.146446 -0.921690 0.358348 0.148412
-2.256258 0.180240 0.074658 -0.977233 0.195990 0.081179
2.118185 0.180240 0.074658 0.977355 0.195471 0.080966
2.061280 0.353554 0.146447 0.921690 0.358348 0.148412
-1.982580 0.653282 0.270598 -0.704031 0.656056 0.271737
-2.106943 0.513280 0.212607 -0.828639 0.517136 0.214209
-1.831043 0.768178 0.318189 -0.552751 0.769890 0.318888
-0.166581 0.915004 0.379007 -0.007355 0.923826 0.382672
-1.470563 0.961940 0.191341 -0.149052 0.969817 0.192907
-1.658156 0.906127 0.180240 -0.380535 0.906980 0.180395
1.332491 0.961940 0.191342 0.193915 0.962157 0.191382
1.137400 0.980785 0.195090 0.045228 0.979766 0.194861
1.692971 0.815493 0.162212 0.552751 0.817316 0.162572
1.520084 0.906127 0.180240 0.380535 0.906980 0.180395
1.968870 0.544895 0.108386 0.828639 0.548997 0.109195
1.844507 0.693520 0.137950 0.704031 0.696493 0.138524
-2.199353 0.375330 0.074658 -0.921690 0.380413 0.075655
-2.256258 0.191342 0.038060 -0.975860 0.207038 0.069247
2.118185 0.191342 0.038060 0.976074 0.206519 0.067721
2.061280 0.375330 0.074658 0.921690 0.380413 0.075655
-1.982580 0.693520 0.137949 -0.704031 0.696493 0.138524
-2.106943 0.544895 0.108386 -0.828639 0.548997 0.109195
-1.831043 0.815493 0.162211 -0.552751 0.817316 0.162572
-0.166581 0.971363 0.193216 -0.007355 0.980743 0.195074
-1.470563 0.979497 0.013077 -0.149693 0.983947 0.096896
-0.166581 0.989097 0.013158 -0.007324 0.995148 0.097995
-0.166581 0.989896 0.005047 -0.006867 0.935759 0.352519
-1.470563 0.980288 0.005047 -0.123051 0.917570 0.378002
1.137400 0.998696 -0.013239 0.045167 0.994140 -0.097903
1.332491 0.979497 -0.013077 0.194189 0.976226 -0.096133
1.332491 0.961940 -0.191342 0.193915 0.962157 -0.191382
1.137400 0.980785 -0.195090 0.045228 0.979766 -0.194861
1.520084 0.922639 -0.012598 0.381115 0.920042 -0.090609
1.692971 0.830305 -0.011821 0.553728 0.828669 -0.081606
1.692971 0.815493 -0.162212 0.552751 0.817316 -0.162572
1.520084 0.906127 -0.180240 0.380535 0.906980 -0.180395
1.844507 0.706046 -0.010776 0.705405 0.705344 -0.069460
1.968870 0.554635 -0.009501 0.830226 0.554704 -0.054628
1.968870 0.544895 -0.108386 0.828639 0.548997 -0.109195
1.844507 0.693520 -0.137950 0.704031 0.696493 -0.138524
-2.256258 0.194453 -0.006470 -0.961180 0.220130 -0.166295
-2.199353 0.381891 -0.008048 -0.923215 0.382366 -0.037660
-2.199353 0.375330 -0.074658 -0.921690 0.380413 -0.075655
-2.256258 0.191342 -0.038061 -0.975860 0.207038 -0.069247
2.118185 0.194453 0.006470 0.962462 0.219031 0.160070
2.124022 0.182479 0.000000 0.991363 0.131016 0.000000
2.123214 0.190698 0.000000 0.984527 0.175054 0.000000
2.118185 0.194593 0.005047 0.855495 0.214576 0.471206
-2.106943 0.554634 -0.009502 -0.830226 0.554704 -0.054628
-1.982580 0.706046 -0.010776 -0.705405 0.705344 -0.069460
-1.982580 0.693520 -0.137950 -0.704031 0.696493 -0.138524
-2.106943 0.544895 -0.108387 -0.828639 0.548997 -0.109195
-1.831043 0.830305 -0.011822 -0.553728 0.828669 -0.081606
-1.658156 0.922639 -0.012599 -0.381115 0.920042 -0.090609
-1.658156 0.906127 -0.180240 -0.380535 0.906980 -0.180395
-1.831043 0.815493 -0.162212 -0.552751 0.817316 -0.162572
-1.470563 0.979497 -0.013077 -0.149693 0.983947 -0.096896
-0.166581 0.989097 -0.013158 -0.007324 0.995148 -0.097995
-0.166581 0.971362 -0.193216 -0.007355 0.980743 -0.195074
-1.470563 0.961940 -0.191342 -0.149052 0.969817 -0.192907
2.061280 0.381891 -0.008047 0.923215 0.382366 -0.037660
2.061280 0.375330 -0.074658 0.921690 0.380413 -0.075655
-1.831043 0.830305 0.011821 -0.553728 0.828669 0.081606
-1.658156 0.922639 0.012598 -0.381115 0.920042 0.090609
-1.658156 0.923382 0.005047 -0.342540 0.849055 0.402142
-1.831043 0.830973 0.005047 -0.500504 0.761864 0.411115
1.332491 0.979497 0.013077 0.194189 0.976226 0.096133
1.520084 0.922639 0.012599 0.381115 0.920042 0.090609
1.520084 0.923382 0.005047 0.344035 0.850703 0.397382
1.332491 0.980288 0.005047 0.171361 0.908261 0.381603
1.692971 0.830305 0.011821 0.553728 0.828669 0.081606
1.844507 0.706046 0.010776 0.705405 0.705344 0.069460
1.844507 0.706610 0.005047 0.642964 0.650594 0.404096
1.692971 0.830973 0.005047 0.502762 0.764061 0.404248
-2.262344 0.182478 -0.000000 -0.991119 0.132817 0.000000
-2.261535 0.190698 -0.000000 -0.983825 0.178991 0.000000
-2.256258 0.194593 -0.005047 -0.846675 0.214820 -0.486770
2.118185 0.194453 -0.006470 0.962462 0.219031 -0.160070
2.141972 -0.000000 0.000000 1.000000 0.000000 0.000000
2.118185 0.191342 -0.038060 0.976074 0.206519 -0.067721
-2.199353 0.381891 0.008047 -0.923215 0.382366 0.037660
-2.106943 0.554634 0.009501 -0.830226 0.554704 0.054628
-2.106943 0.555073 0.005047 -0.755943 0.511063 0.409040
-2.199353 0.382186 0.005047 -0.844539 0.354228 0.401563
-1.982580 0.706046 0.010775 -0.705405 0.705344 0.069460
-1.982580 0.706610 0.005047 -0.639821 0.648213 0.412793
1.137400 0.998696 0.013239 0.045167 0.994140 0.097903
1.137400 0.999503 0.005047 0.037172 0.931547 0.361644
1.968870 0.554635 0.009501 0.830226 0.554704 0.054628
1.968870 0.555073 0.005047 0.759972 0.513199 0.398785
-2.256258 0.194453 0.006470 -0.961180 0.220130 0.166295
-2.256258 0.194593 0.005047 -0.846675 0.214820 0.486770
-1.470563 0.906127 -0.375331 -0.149052 0.913541 -0.378399
-1.658156 0.853553 -0.353554 -0.380535 0.854366 -0.353862
1.332491 0.906127 -0.375330 0.193915 0.906339 -0.375408
1.137400 0.923880 -0.382684 0.045228 0.922910 -0.382275
1.692971 0.768178 -0.318190 0.552751 0.769890 -0.318888
1.520084 0.853553 -0.353553 0.380535 0.854366 -0.353893
1.968870 0.513280 -0.212608 0.828639 0.517136 -0.214209
1.844507 0.653282 -0.270598 0.704031 0.656056 -0.271737
-2.199353 0.353553 -0.146447 -0.921690 0.358348 -0.148412
-2.256258 0.180240 -0.074658 -0.977203 0.195990 -0.081179
2.118185 0.180240 -0.074658 0.977355 0.195471 -0.080966
2.061280 0.353554 -0.146447 0.921690 0.358348 -0.148412
-1.982580 0.653282 -0.270598 -0.704031 0.656056 -0.271737
-2.106943 0.513280 -0.212608 -0.828639 0.517136 -0.214209
-1.831043 0.768178 -0.318190 -0.552751 0.769890 -0.318888
-0.166581 0.915003 -0.379007 -0.007355 0.923826 -0.382672
-1.470563 0.815493 -0.544895 -0.149052 0.822169 -0.549333
-1.658156 0.768178 -0.513280 -0.380535 0.768914 -0.513749
1.332491 0.815493 -0.544895 0.193915 0.815668 -0.545000
1.137400 0.831470 -0.555570 0.045228 0.830592 -0.554979
1.692971 0.691342 -0.461940 0.552751 0.692892 -0.462966
1.520084 0.768178 -0.513280 0.380535 0.768914 -0.513749
1.968870 0.461940 -0.308658 0.828639 0.465407 -0.310984
1.844507 0.587938 -0.392847 0.704031 0.590442 -0.394513
-2.199353 0.318190 -0.212608 -0.921690 0.322489 -0.215491
-2.256258 0.162212 -0.108387 -0.977233 0.176397 -0.117862
2.118185 0.162212 -0.108386 0.977355 0.175909 -0.117527
2.061280 0.318190 -0.212608 0.921690 0.322489 -0.215491
-1.982580 0.587938 -0.392848 -0.704031 0.590442 -0.394513
-2.106943 0.461940 -0.308659 -0.828639 0.465407 -0.310984
-1.831043 0.691342 -0.461940 -0.552751 0.692892 -0.462966
-0.166581 0.823481 -0.550233 -0.007355 0.831446 -0.555528
-1.470563 0.693520 -0.693520 -0.149052 0.699179 -0.699179
-1.658156 0.653282 -0.653282 -0.380535 0.653890 -0.653890
1.332491 0.693520 -0.693520 0.193915 0.693655 -0.693655
1.137400 0.707107 -0.707107 0.045228 0.706381 -0.706381
1.692971 0.587938 -0.587938 0.552751 0.589251 -0.589251
1.520084 0.653282 -0.653281 0.380535 0.653890 -0.653890
1.968870 0.392847 -0.392848 0.828639 0.395795 -0.395795
1.844507 0.500000 -0.500000 0.704031 0.502121 -0.502121
-2.199353 0.270598 -0.270598 -0.921690 0.274270 -0.274270
-2.256258 0.137950 -0.137950 -0.977233 0.149998 -0.149998
2.118185 0.137950 -0.137950 0.977355 0.149602 -0.149602
2.061280 0.270598 -0.270598 0.921690 0.274270 -0.274270
-1.982580 0.500000 -0.500000 -0.704031 0.502121 -0.502121
-2.106943 0.392847 -0.392848 -0.828639 0.395795 -0.395795
-1.831043 0.587938 -0.587938 -0.552751 0.589251 -0.589251
-0.166581 0.700313 -0.700313 -0.007355 0.707083 -0.707083
-1.470563 0.544895 -0.815493 -0.149052 0.549333 -0.822169
-1.658156 0.513280 -0.768178 -0.380535 0.513749 -0.768914
1.332491 0.544895 -0.815493 0.193915 0.545000 -0.815668
1.137401 0.555570 -0.831470 0.045228 0.554979 -0.830592
1.692971 0.461940 -0.691342 0.552751 0.462966 -0.692892
1.520084 0.513280 -0.768178 0.380535 0.513749 -0.768914
1.968870 0.308658 -0.461940 0.828639 0.310984 -0.465407
1.844507 0.392847 -0.587938 0.704031 0.394513 -0.590442
-2.199353 0.212607 -0.318190 -0.921690 0.215491 -0.322489
-2.256258 0.108386 -0.162212 -0.977233 0.117862 -0.176397
2.118185 0.108386 -0.162212 0.977355 0.117527 -0.175909
2.061280 0.212608 -0.318190 0.921690 0.215491 -0.322489
-1.982580 0.392847 -0.587938 -0.704031 0.394513 -0.590442
-2.106943 0.308658 -0.461940 -0.828639 0.310984 -0.465407
-1.831043 0.461940 -0.691342 -0.552751 0.462966 -0.692892
-0.166581 0.550233 -0.823482 -0.007355 0.555528 -0.831446
-1.470563 0.375330 -0.906128 -0.149052 0.378399 -0.913541
-1.658156 0.353553 -0.853554 -0.380535 0.353862 -0.854366
1.332491 0.375330 -0.906127 0.193915 0.375408 -0.906339
1.137401 0.382683 -0.923880 0.045228 0.382275 -0.922910
1.692971 0.318189 -0.768178 0.552751 0.318888 -0.769890
1.520084 0.353553 -0.853553 0.380535 0.353862 -0.854366
1.968870 0.212607 -0.513280 0.828639 0.214209 -0.517136
1.844507 0.270598 -0.653281 0.704031 0.271737 -0.656056
-2.199353 0.146447 -0.353554 -0.921690 0.148412 -0.358348
-2.256258 0.074658 -0.180240 -0.977203 0.081179 -0.195990
2.118185 0.074658 -0.180240 0.977355 0.080966 -0.195471
2.061280 0.146447 -0.353553 0.921690 0.148412 -0.358348
-1.982580 0.270598 -0.653282 -0.704031 0.271737 -0.656056
-2.106943 0.212607 -0.513280 -0.828639 0.214209 -0.517136
-1.831043 0.318189 -0.768178 -0.552751 0.318888 -0.769890
-0.166581 0.379007 -0.915004 -0.007355 0.382672 -0.923826
-1.470563 0.191342 -0.961940 -0.149052 0.192907 -0.969817
-1.658156 0.180240 -0.906128 -0.380535 0.180395 -0.906980
1.332491 0.191342 -0.961940 0.193915 0.191382 -0.962157
1.137401 0.195090 -0.980785 0.045228 0.194861 -0.979766
1.692971 0.162211 -0.815493 0.552751 0.162572 -0.817316
1.520084 0.180240 -0.906127 0.380535 0.180395 -0.906980
1.968870 0.108386 -0.544895 0.828639 0.109195 -0.548997
1.844507 0.137950 -0.693520 0.704031 0.138524 -0.696493
-2.199353 0.074658 -0.375331 -0.921690 0.075655 -0.380413
-2.256258 0.038060 -0.191342 -0.977233 0.041383 -0.208075
2.118185 0.038060 -0.191342 0.977355 0.041261 -0.207526
2.061280 0.074658 -0.375330 0.921690 0.075655 -0.380413
-1.982580 0.137950 -0.693520 -0.704031 0.138524 -0.696493
-2.106943 0.108386 -0.544895 -0.828639 0.109195 -0.548997
-1.831043 0.162211 -0.815493 -0.552751 0.162572 -0.817316
-0.166581 0.193216 -0.971363 -0.007355 0.195074 -0.980743
-1.470563 -0.000000 -0.980785 -0.149052 0.000000 -0.988800
-1.658156 -0.000000 -0.923880 -0.380535 0.000000 -0.924741
1.332491 -0.000000 -0.980785 0.193915 0.000000 -0.980987
1.137401 -0.000000 -1.000000 0.045228 0.000000 -0.998962
1.692971 -0.000000 -0.831469 0.552751 0.000000 -0.833338
1.520084 -0.000000 -0.923880 0.380535 0.000000 -0.924741
1.968870 -0.000000 -0.555570 0.828639 0.000000 -0.559771
1.844507 -0.000000 -0.707107 0.704031 0.000000 -0.710135
-2.199353 -0.000000 -0.382684 -0.921690 0.000000 -0.387860
-2.256258 -0.000000 -0.195091 -0.977233 0.000000 -0.212165
2.118185 -0.000000 -0.195090 0.977355 0.000000 -0.211585
2.061280 -0.000000 -0.382683 0.921690 0.000000 -0.387860
-1.982580 -0.000000 -0.707107 -0.704031 0.000000 -0.710135
-2.106943 -0.000000 -0.555570 -0.828639 0.000000 -0.559771
-1.831043 -0.000000 -0.831470 -0.552751 0.000000 -0.833338
-0.166581 -0.000000 -0.990393 -0.007355 0.000000 -0.999969
-1.470563 -0.191342 -0.961940 -0.149052 -0.192907 -0.969817
-1.658156 -0.180240 -0.906128 -0.380535 -0.180395 -0.906980
1.332491 -0.191342 -0.961939 0.193915 -0.191382 -0.962157
1.137401 -0.195091 -0.980785 0.045228 -0.194861 -0.979766
1.692971 -0.162212 -0.815493 0.552751 -0.162572 -0.817316
1.520084 -0.180240 -0.906127 0.380535 -0.180395 -0.906980
1.968870 -0.108386 -0.544895 0.828639 -0.109195 -0.548997
1.844507 -0.137950 -0.693520 0.704031 -0.138524 -0.696493
-2.199353 -0.074658 -0.375331 -0.921690 -0.075655 -0.380413
-2.256258 -0.038060 -0.191342 -0.977203 -0.041383 -0.208075
2.118185 -0.038060 -0.191342 0.977355 -0.041261 -0.207526
2.061280 -0.074658 -0.375330 0.921690 -0.075655 -0.380413
-1.982580 -0.137950 -0.693520 -0.704031 -0.138524 -0.696493
-2.106943 -0.108386 -0.544895 -0.828639 -0.109195 -0.548997
-1.831043 -0.162212 -0.815493 -0.552751 -0.162572 -0.817316
-0.166581 -0.193216 -0.971362 -0.007355 -0.195074 -0.980743
-1.470563 -0.375330 -0.906127 -0.149052 -0.378399 -0.913541
-1.658156 -0.353553 -0.853554 -0.380535 -0.353862 -0.854366
1.332491 -0.375330 -0.906127 0.193915 -0.375408 -0.906339
1.137401 -0.382684 -0.923880 0.045228 -0.382275 -0.922910
1.692971 -0.318190 -0.768177 0.552751 -0.318888 -0.769890
1.520084 -0.353553 -0.853553 0.380535 -0.353862 -0.854366
1.968870 -0.212608 -0.513280 0.828639 -0.214209 -0.517136
1.844507 -0.270598 -0.653281 0.704031 -0.271737 -0.656056
-2.199353 -0.146447 -0.353554 -0.921690 -0.148412 -0.358348
-2.256258 -0.074658 -0.180240 -0.977233 -0.081179 -0.195990
2.118185 -0.074658 -0.180240 0.977355 -0.080966 -0.195471
2.061280 -0.146447 -0.353553 0.921690 -0.148412 -0.358348
-1.982580 -0.270598 -0.653282 -0.704031 -0.271737 -0.656056
-2.106943 -0.212608 -0.513280 -0.828639 -0.214209 -0.517136
-1.831043 -0.318190 -0.768178 -0.552751 -0.318888 -0.769890
-0.166581 -0.379007 -0.915003 -0.007355 -0.382672 -0.923826
-1.470563 -0.544895 -0.815493 -0.149052 -0.549333 -0.822169
-1.658156 -0.513280 -0.768178 -0.380535 -0.513749 -0.768914
1.332491 -0.544895 -0.815493 0.193915 -0.545000 -0.815668
1.137401 -0.555570 -0.831470 0.045228 -0.554979 -0.830592
1.692971 -0.461940 -0.691341 0.552751 -0.462966 -0.692892
1.520084 -0.513280 -0.768178 0.380535 -0.513749 -0.768914
1.968870 -0.308658 -0.461940 0.828639 -0.310984 -0.465407
1.844507 -0.392848 -0.587938 0.704031 -0.394513 -0.590442
-2.199353 -0.212608 -0.318190 -0.921690 -0.215491 -0.322489
-2.256258 -0.108386 -0.162212 -0.977203 -0.117862 -0.176397
2.118185 -0.108387 -0.162212 0.977355 -0.117527 -0.175909
2.061280 -0.212608 -0.318190 0.921690 -0.215491 -0.322489
-1.982580 -0.392848 -0.587938 -0.704031 -0.394513 -0.590442
-2.106943 -0.308658 -0.461940 -0.828639 -0.310984 -0.465407
-1.831043 -0.461940 -0.691342 -0.552751 -0.462966 -0.692892
-0.166581 -0.550233 -0.823481 -0.007355 -0.555528 -0.831446
-1.470563 -0.693520 -0.693520 -0.149052 -0.699179 -0.699179
-1.658156 -0.653282 -0.653282 -0.380535 -0.653890 -0.653890
1.332491 -0.693520 -0.693520 0.193915 -0.693655 -0.693655
1.137400 -0.707107 -0.707107 0.045228 -0.706381 -0.706381
1.692971 -0.587938 -0.587937 0.552751 -0.589251 -0.589251
1.520084 -0.653282 -0.653281 0.380535 -0.653890 -0.653890
1.968870 -0.392848 -0.392848 0.828639 -0.395795 -0.395795
1.844507 -0.500000 -0.500000 0.704031 -0.502121 -0.502121
-2.199353 -0.270598 -0.270598 -0.921690 -0.274270 -0.274270
-2.256258 -0.137950 -0.137950 -0.977233 -0.149998 -0.149998
2.118185 -0.137950 -0.137950 0.977355 -0.149602 -0.149602
2.061280 -0.270598 -0.270598 0.921690 -0.274270 -0.274270
-1.982580 -0.500000 -0.500000 -0.704031 -0.502121 -0.502121
-2.106943 -0.392848 -0.392848 -0.828639 -0.395795 -0.395795
-1.831043 -0.587938 -0.587938 -0.552751 -0.589251 -0.589251
-0.166581 -0.700313 -0.700313 -0.007355 -0.707083 -0.707083
-1.470563 -0.815493 -0.544895 -0.149052 -0.822169 -0.549333
-1.658156 -0.768178 -0.513280 -0.380535 -0.768914 -0.513749
1.332491 -0.815493 -0.544895 0.193915 -0.815668 -0.545000
1.137400 -0.831470 -0.555570 0.045228 -0.830592 -0.554979
1.692971 -0.691342 -0.461939 0.552751 -0.692892 -0.462966
1.520084 -0.768178 -0.513280 0.380535 -0.768914 -0.513749
1.968870 -0.461940 -0.308658 0.828639 -0.465407 -0.310984
1.844507 -0.587938 -0.392847 0.704031 -0.590442 -0.394513
-2.199353 -0.318190 -0.212608 -0.921690 -0.322489 -0.215491
-2.256258 -0.162212 -0.108387 -0.977233 -0.176397 -0.117862
2.118185 -0.162212 -0.108386 0.977355 -0.175909 -0.117527
2.061280 -0.318190 -0.212607 0.921690 -0.322489 -0.215491
-1.982580 -0.587938 -0.392848 -0.704031 -0.590442 -0.394513
-2.106943 -0.461940 -0.308658 -0.828639 -0.465407 -0.310984
-1.831043 -0.691342 -0.461940 -0.552751 -0.692892 -0.462966
-0.166581 -0.823481 -0.550232 -0.007355 -0.831446 -0.555528
-1.470563 -0.906127 -0.375330 -0.149052 -0.913541 -0.378399
-1.658156 -0.853553 -0.353554 -0.380535 -0.854366 -0.353862
1.332491 -0.906127 -0.375330 0.193915 -0.906339 -0.375408
1.137400 -0.923880 -0.382683 0.045228 -0.922910 -0.382275
1.692971 -0.768178 -0.318189 0.552751 -0.769890 -0.318888
1.520084 -0.853553 -0.353553 0.380535 -0.854366 -0.353862
1.968870 -0.513280 -0.212607 0.828639 -0.517136 -0.214209
1.844507 -0.653282 -0.270598 0.704031 -0.656056 -0.271737
-2.199353 -0.353553 -0.146447 -0.921690 -0.358348 -0.148412
-2.256258 -0.180240 -0.074658 -0.977203 -0.195990 -0.081179
2.118185 -0.180240 -0.074658 0.977355 -0.195471 -0.080966
2.061280 -0.353553 -0.146446 0.921690 -0.358348 -0.148412
-1.982580 -0.653282 -0.270598 -0.704031 -0.656056 -0.271737
-2.106943 -0.513280 -0.212608 -0.828639 -0.517136 -0.214209
-1.831043 -0.768178 -0.318190 -0.552751 -0.769890 -0.318888
-0.166581 -0.915003 -0.379007 -0.007355 -0.923826 -0.382672
-1.470563 -0.961940 -0.191342 -0.149052 -0.969817 -0.192907
-1.658156 -0.906128 -0.180240 -0.380535 -0.906980 -0.180395
1.332491 -0.961940 -0.191341 0.193915 -0.962157 -0.191382
1.137400 -0.980785 -0.195090 0.045228 -0.979766 -0.194861
1.692971 -0.815493 -0.162211 0.552751 -0.817316 -0.162572
1.520084 -0.906128 -0.180240 0.380535 -0.906980 -0.180395
1.968870 -0.544895 -0.108386 0.828639 -0.548997 -0.109195
1.844507 -0.693520 -0.137950 0.704031 -0.696493 -0.138524
-2.199353 -0.375330 -0.074658 -0.921690 -0.380413 -0.075655
-2.256258 -0.191342 -0.038060 -0.975951 -0.206915 -0.068514
2.118185 -0.191342 -0.038060 0.976135 -0.206397 -0.067019
2.061280 -0.375330 -0.074658 0.921690 -0.380413 -0.075655
-1.982580 -0.693520 -0.137950 -0.704031 -0.696493 -0.138524
-2.106943 -0.544895 -0.108387 -0.828639 -0.548997 -0.109195
-1.831043 -0.815493 -0.162212 -0.552751 -0.817316 -0.162572
-0.166581 -0.971362 -0.193216 -0.007355 -0.980743 -0.195074
-1.470563 -0.978907 -0.019071 -0.149693 -0.983947 -0.096896
-0.166581 -0.988500 -0.019212 -0.007324 -0.995148 -0.097995
-0.166581 -0.989895 -0.005047 -0.006867 -0.935759 -0.352519
-1.470563 -0.980288 -0.005047 -0.123051 -0.917570 -0.378002
1.137400 -0.998094 0.019354 0.045167 -0.994140 0.097903
1.332491 -0.978907 0.019072 0.194189 -0.976226 0.096133
1.332491 -0.961939 0.191342 0.193915 -0.962157 0.191382
1.137400 -0.980785 0.195090 0.045228 -0.979766 0.194861
1.520084 -0.922083 0.018236 0.381115 -0.920042 0.090609
1.692971 -0.829807 0.016879 0.553728 -0.828669 0.081606
1.692971 -0.815493 0.162212 0.552751 -0.817316 0.162572
1.520084 -0.906127 0.180240 0.380535 -0.906980 0.180395
1.844507 -0.705624 0.015052 0.705405 -0.705344 0.069460
1.968870 -0.554307 0.012827 0.830226 -0.554674 0.054628
1.968870 -0.544895 0.108386 0.828639 -0.548997 0.109195
1.844507 -0.693520 0.137950 0.704031 -0.696493 0.138524
-2.256258 -0.194348 0.007532 -0.962584 -0.218818 0.159734
-2.199353 -0.381670 0.010287 -0.923215 -0.382366 0.037660
-2.199353 -0.375330 0.074658 -0.921690 -0.380413 0.075655
-2.256258 -0.191342 0.038060 -0.975951 -0.206915 0.068514
2.118185 -0.194349 -0.007532 0.963805 -0.217750 -0.153661
2.124626 -0.176343 0.000000 0.991974 -0.126194 0.000000
2.123214 -0.190699 0.000000 0.986084 -0.166204 0.000000
2.118185 -0.194593 -0.005047 0.866298 -0.212317 -0.452071
-2.106943 -0.554307 0.012826 -0.830226 -0.554704 0.054628
-1.982580 -0.705624 0.015052 -0.705405 -0.705344 0.069460
-1.982580 -0.693520 0.137950 -0.704031 -0.696493 0.138524
-2.106943 -0.544895 0.108386 -0.828639 -0.548997 0.109195
-1.831043 -0.829807 0.016879 -0.553728 -0.828669 0.081606
-1.658156 -0.922083 0.018236 -0.381115 -0.920042 0.090609
-1.658156 -0.906127 0.180240 -0.380535 -0.906980 0.180395
-1.831043 -0.815493 0.162212 -0.552751 -0.817316 0.162572
-1.470563 -0.978907 0.019071 -0.149693 -0.983947 0.096896
-0.166581 -0.988500 0.019213 -0.007324 -0.995148 0.097995
-0.166581 -0.971362 0.193216 -0.007355 -0.980743 0.195074
-1.470563 -0.961939 0.191342 -0.149052 -0.969817 0.192907
2.061280 -0.381670 0.010288 0.923215 -0.382366 0.037660
2.061280 -0.375330 0.074658 0.921690 -0.380413 0.075655
-1.831043 -0.829807 -0.016879 -0.553728 -0.828669 -0.081606
-1.658156 -0.922083 -0.018236 -0.381115 -0.920042 -0.090609
-1.658156 -0.923382 -0.005047 -0.342540 -0.849055 -0.402142
-1.831043 -0.830972 -0.005047 -0.500504 -0.761864 -0.411115
1.332491 -0.978907 -0.019071 0.194189 -0.976226 -0.096133
1.520084 -0.922083 -0.018236 0.381115 -0.920042 -0.090609
1.520084 -0.923382 -0.005047 0.344035 -0.850703 -0.397382
1.332491 -0.980288 -0.005047 0.171361 -0.908261 -0.381603
1.692971 -0.829807 -0.016878 0.553728 -0.828669 -0.081606
1.844507 -0.705624 -0.015052 0.705405 -0.705344 -0.069460
1.844507 -0.706610 -0.005047 0.642964 -0.650594 -0.404096
1.692971 -0.830972 -0.005047 0.502762 -0.764061 -0.404248
-2.262948 -0.176342 -0.000000 -0.991791 -0.127750 0.000000
-2.261535 -0.190698 -0.000000 -0.985473 -0.169744 0.000000
-2.256258 -0.194593 0.005047 -0.858089 -0.212561 0.467391
2.118185 -0.194349 0.007532 0.963805 -0.217719 0.153661
2.118185 -0.191342 0.038060 0.976135 -0.206397 0.067019
-2.199353 -0.381670 -0.010288 -0.923215 -0.382366 -0.037660
-2.106943 -0.554307 -0.012827 -0.830226 -0.554704 -0.054628
-2.106943 -0.555073 -0.005047 -0.755943 -0.511063 -0.409040
-2.199353 -0.382186 -0.005047 -0.844539 -0.354228 -0.401563
-1.982580 -0.705624 -0.015052 -0.705405 -0.705344 -0.069460
-1.982580 -0.706610 -0.005047 -0.639821 -0.648213 -0.412793
1.137400 -0.998094 -0.019354 0.045167 -0.994140 -0.097903
1.137400 -0.999503 -0.005047 0.037172 -0.931547 -0.361644
1.968870 -0.554307 -0.012826 0.830226 -0.554704 -0.054628
1.968870 -0.555073 -0.005047 0.759972 -0.513199 -0.398785
-2.256258 -0.194348 -0.007533 -0.962584 -0.218787 -0.159734
-2.256258 -0.194593 -0.005047 -0.858089 -0.212531 -0.467391
-1.470563 -0.906127 0.375330 -0.149052 -0.913541 0.378399
-1.658156 -0.853553 0.353553 -0.380535 -0.854366 0.353862
1.332491 -0.906127 0.375330 0.193915 -0.906339 0.375408
1.137400 -0.923879 0.382684 0.045228 -0.922910 0.382275
1.692971 -0.768177 0.318190 0.552751 -0.769890 0.318888
1.520084 -0.853553 0.353553 0.380535 -0.854366 0.353862
1.968870 -0.513280 0.212608 0.828639 -0.517136 0.214209
1.844507 -0.653281 0.270598 0.704031 -0.656056 0.271737
-2.199353 -0.353553 0.146446 -0.921690 -0.358348 0.148412
-2.256258 -0.180240 0.074658 -0.977233 -0.195990 0.081179
2.118185 -0.180240 0.074658 0.977355 -0.195471 0.080966
2.061280 -0.353553 0.146447 0.921690 -0.358348 0.148412
-1.982580 -0.653281 0.270598 -0.704031 -0.656056 0.271737
-2.106943 -0.513280 0.212607 -0.828639 -0.517136 0.214209
-1.831043 -0.768177 0.318189 -0.552751 -0.769890 0.318888
-0.166581 -0.915003 0.379007 -0.007355 -0.923826 0.382672
-1.470563 -0.815493 0.544895 -0.149052 -0.822169 0.549333
-1.658156 -0.768178 0.513280 -0.380535 -0.768914 0.513749
1.332491 -0.815493 0.544895 0.193915 -0.815668 0.545000
1.137400 -0.831469 0.555570 0.045228 -0.830592 0.554979
1.692971 -0.691341 0.461940 0.552751 -0.692892 0.462966
1.520084 -0.768178 0.513280 0.380535 -0.768914 0.513749
1.968870 -0.461940 0.308658 0.828639 -0.465407 0.310984
1.844507 -0.587938 0.392848 0.704031 -0.590442 0.394513
-2.199353 -0.318190 0.212607 -0.921690 -0.322489 0.215491
-2.256258 -0.162212 0.108386 -0.977203 -0.176397 0.117862
2.118185 -0.162212 0.108387 0.977355 -0.175909 0.117527
2.061280 -0.318190 0.212608 0.921690 -0.322489 0.215491
-1.982580 -0.587938 0.392847 -0.704031 -0.590442 0.394513
-2.106943 -0.461940 0.308658 -0.828639 -0.465407 0.310984
-1.831043 -0.691341 0.461939 -0.552751 -0.692892 0.462966
-0.166581 -0.823481 0.550233 -0.007355 -0.831446 0.555528
-1.470563 -0.693519 0.693519 -0.149052 -0.699179 0.699179
-1.658156 -0.653282 0.653281 -0.380535 -0.653890 0.653890
1.332491 -0.693519 0.693520 0.193915 -0.693655 0.693655
1.137400 -0.707106 0.707107 0.045228 -0.706381 0.706381
1.692971 -0.587937 0.587938 0.552751 -0.589251 0.589251
1.520084 -0.653282 0.653281 0.380535 -0.653890 0.653890
1.968870 -0.392847 0.392848 0.828639 -0.395795 0.395795
1.844507 -0.500000 0.500000 0.704031 -0.502121 0.502121
-2.199353 -0.270598 0.270598 -0.921690 -0.274270 0.274270
-2.256258 -0.137950 0.137949 -0.977203 -0.149998 0.149998
2.118185 -0.137950 0.137950 0.977355 -0.149602 0.149602
2.061280 -0.270598 0.270598 0.921690 -0.274270 0.274270
-1.982580 -0.500000 0.500000 -0.704031 -0.502121 0.502121
-2.106943 -0.392847 0.392847 -0.828639 -0.395795 0.395795
-1.831043 -0.587937 0.587937 -0.552751 -0.589251 0.589251
-0.166581 -0.700313 0.700313 -0.007355 -0.707083 0.707083
-1.470563 -0.544895 0.815493 -0.149052 -0.549333 0.822169
-1.658156 -0.513280 0.768177 -0.380535 -0.513749 0.768914
1.332491 -0.544895 0.815493 0.193915 -0.545000 0.815668
1.137400 -0.555570 0.831469 0.045228 -0.554979 0.830592
1.692971 -0.461939 0.691342 0.552751 -0.462966 0.692892
1.520084 -0.513280 0.768178 0.380535 -0.513749 0.768914
1.968870 -0.308658 0.461940 0.828639 -0.310984 0.465407
1.844507 -0.392847 0.587938 0.704031 -0.394513 0.590442
-2.199353 -0.212607 0.318189 -0.921690 -0.215491 0.322489
-2.256258 -0.108386 0.162211 -0.977233 -0.117862 0.176397
2.118185 -0.108387 0.162212 0.977355 -0.117527 0.175909
2.061280 -0.212608 0.318190 0.921690 -0.215491 0.322489
-1.982580 -0.392847 0.587938 -0.704031 -0.394513 0.590442
-2.106943 -0.308658 0.461939 -0.828639 -0.310984 0.465407
-1.831043 -0.461939 0.691341 -0.552751 -0.462966 0.692892
-0.166581 -0.550232 0.823481 -0.007355 -0.555528 0.831446
-1.470563 -0.375330 0.906127 -0.149052 -0.378399 0.913541
-1.658156 -0.353553 0.853553 -0.380535 -0.353862 0.854366
1.332491 -0.375330 0.906127 0.193915 -0.375408 0.906339
1.137400 -0.382683 0.923879 0.045228 -0.382275 0.922910
1.692971 -0.318189 0.768177 0.552751 -0.318888 0.769890
1.520084 -0.353553 0.853553 0.380535 -0.353862 0.854366
1.968870 -0.212607 0.513280 0.828639 -0.214209 0.517136
1.844507 -0.270598 0.653282 0.704031 -0.271737 0.656056
-2.199353 -0.146447 0.353553 -0.921690 -0.148412 0.358348
-2.256258 -0.074658 0.180240 -0.977203 -0.081179 0.195990
2.118185 -0.074658 0.180240 0.977355 -0.080966 0.195471
2.061280 -0.146447 0.353553 0.921690 -0.148412 0.358348
-1.982580 -0.270598 0.653281 -0.704031 -0.271737 0.656056
-2.106943 -0.212607 0.513279 -0.828639 -0.214209 0.517136
-1.831043 -0.318189 0.768177 -0.552751 -0.318888 0.769890
-0.166581 -0.379007 0.915003 -0.007355 -0.382672 0.923826
-1.470563 -0.191341 0.961939 -0.149052 -0.192907 0.969817
-1.658156 -0.180240 0.906127 -0.380535 -0.180395 0.906980
1.332491 -0.191341 0.961939 0.193915 -0.191382 0.962157
1.137400 -0.195090 0.980785 0.045228 -0.194891 0.979766
1.692970 -0.162211 0.815493 0.552751 -0.162572 0.817316
1.520084 -0.180240 0.906127 0.380535 -0.180395 0.906980
1.968870 -0.108386 0.544895 0.828639 -0.109195 0.548997
1.844507 -0.137950 0.693520 0.704031 -0.138524 0.696493
-2.199353 -0.074658 0.375330 -0.921690 -0.075655 0.380413
-2.256258 -0.038060 0.191341 -0.977203 -0.041383 0.208075
2.118185 -0.038060 0.191342 0.977355 -0.041261 0.207526
2.061280 -0.074658 0.375330 0.921690 -0.075655 0.380413
-1.982580 -0.137950 0.693520 -0.704031 -0.138524 0.696493
-2.106943 -0.108386 0.544895 -0.828639 -0.109195 0.548997
-1.831043 -0.162211 0.815493 -0.552751 -0.162572 0.817316
-0.166581 -0.193216 0.971362 -0.007355 -0.195074 0.980743
-2.280293 -0.000000 -0.000000 -1.000000 0.000000 0.000000
2.061280 -0.381670 -0.010287 0.923215 -0.382366 -0.037660
2.061280 -0.382186 -0.005047 0.849239 -0.355815 -0.390057
2.061280 0.381891 0.008048 0.923215 0.382366 0.037660
2.061280 0.382186 0.005047 0.849239 0.355815 0.390057
2.118185 0.194593 -0.005047 0.855495 0.214606 -0.471206
2.122716 0.195471 0.000000 0.980316 0.197394 0.000000
-2.261037 0.195471 -0.000000 -0.980377 0.197028 0.000000
2.118185 -0.194593 0.005047 0.866329 -0.212317 0.452071
2.122716 -0.195471 0.000000 0.980316 -0.197394 0.000000
-2.261037 -0.195471 -0.000000 -0.980377 -0.197028 0.000000
2.061280 0.382186 -0.005047 0.849239 0.355815 -0.390057
2.065689 0.383710 0.000000 0.925016 0.379864 0.000000
1.968870 0.555073 -0.005047 0.759972 0.513199 -0.398785
1.973083 0.557193 0.000000 0.834651 0.550768 0.000000
1.844507 0.706610 -0.005047 0.642964 0.650594 -0.404096
1.848455 0.709252 0.000000 0.713248 0.700858 0.000000
1.692971 0.830973 -0.005047 0.502762 0.764061 -0.404248
1.696596 0.834043 0.000000 0.565508 0.824732 0.000000
1.520084 0.923382 -0.005047 0.344035 0.850703 -0.397382
1.523341 0.926772 0.000000 0.396863 0.917844 0.000000
1.332491 0.980288 -0.005047 0.171361 0.908261 -0.381603
1.335349 0.983873 -0.000000 0.213538 0.976928 0.000000
1.137400 0.999503 -0.005047 0.037172 0.931547 -0.361644
1.139844 1.003155 -0.000000 0.056734 0.998383 0.000000
-0.166581 0.989896 -0.005047 -0.006867 0.935759 -0.352519
-1.470563 0.980288 -0.005047 -0.123051 0.917570 -0.378002
-1.473670 0.983873 -0.000000 -0.181799 0.983306 0.000000
-0.166913 0.993514 -0.000000 -0.007355 0.999969 0.000000
-1.658156 0.923382 -0.005047 -0.342540 0.849055 -0.402142
-1.661662 0.926772 -0.000000 -0.398450 0.917173 0.000000
-1.831043 0.830973 -0.005047 -0.500504 0.761864 -0.411115
-1.834917 0.834043 -0.000000 -0.566759 0.823847 0.000000
-1.982580 0.706610 -0.005047 -0.639821 0.648213 -0.412793
-1.986776 0.709252 -0.000000 -0.714164 0.699942 0.000000
-2.106943 0.555073 -0.005047 -0.755943 0.511063 -0.409040
-2.111404 0.557193 -0.000000 -0.835200 0.549883 0.000000
-2.199353 0.382186 -0.005047 -0.844539 0.354228 -0.401563
-2.204010 0.383710 -0.000000 -0.925291 0.379192 0.000000
2.061280 -0.382186 0.005047 0.849239 -0.355815 0.390057
2.065689 -0.383710 0.000000 0.925016 -0.379864 0.000000
1.968870 -0.555073 0.005047 0.759972 -0.513199 0.398785
1.973083 -0.557193 0.000000 0.834651 -0.550768 0.000000
1.844507 -0.706610 0.005047 0.642964 -0.650594 0.404096
1.848455 -0.709252 0.000000 0.713248 -0.700858 0.000000
1.692971 -0.830972 0.005047 0.502762 -0.764061 0.404248
1.696596 -0.834043 0.000000 0.565508 -0.824732 0.000000
1.520084 -0.923382 0.005047 0.344035 -0.850703 0.397382
1.523341 -0.926772 0.000000 0.396863 -0.917844 0.000000
1.332491 -0.980288 0.005047 0.171361 -0.908261 0.381603
1.335349 -0.983873 0.000000 0.213538 -0.976928 0.000000
1.137400 -0.999503 0.005047 0.037172 -0.931547 0.361644
1.139844 -1.003155 0.000000 0.056734 -0.998383 0.000000
-0.166581 -0.989895 0.005047 -0.006867 -0.935759 0.352519
-1.470563 -0.980288 0.005047 -0.123051 -0.917570 0.378002
-1.473670 -0.983873 0.000000 -0.181799 -0.983306 0.000000
-0.166913 -0.993514 0.000000 -0.007355 -0.999969 0.000000
-1.658156 -0.923382 0.005047 -0.342540 -0.849055 0.402142
-1.661662 -0.926772 -0.000000 -0.398450 -0.917173 0.000000
-1.831043 -0.830972 0.005047 -0.500504 -0.761864 0.411115
-1.834917 -0.834043 -0.000000 -0.566759 -0.823847 0.000000
-1.982580 -0.706610 0.005047 -0.639821 -0.648213 0.412793
-1.986776 -0.709252 -0.000000 -0.714164 -0.699942 0.000000
-2.106943 -0.555073 0.005047 -0.755943 -0.511063 0.409040
-2.111404 -0.557193 -0.000000 -0.835200 -0.549883 0.000000
-2.199353 -0.382186 0.005047 -0.844539 -0.354228 0.401563
-2.204010 -0.383710 -0.000000 -0.925291 -0.379192 0.000000
4 0 1 2 3
4 4 5 6 7
4 8 9 10 11
4 12 13 14 15
4 16 17 18 19
4 20 21 22 23
4 24 25 26 27
4 28 0 3 29
4 1 8 11 2
4 5 12 15 6
4 13 16 19 14
4 17 30 31 18
4 21 24 27 22
4 25 28 29 26
4 18 31 32 33
4 22 27 34 35
4 26 29 36 37
4 3 2 38 39
4 7 6 40 41
4 11 10 42 43
4 15 14 44 45
4 19 18 33 46
4 23 22 35 47
4 27 26 37 34
4 29 3 39 36
4 2 11 43 38
4 6 15 45 40
4 14 19 46 44
4 33 32 48 49
4 35 34 50 51
4 37 36 52 53
4 39 38 54 55
4 41 40 56 57
4 43 42 58 59
4 45 44 60 61
4 46 33 49 62
4 47 35 51 63
4 34 37 53 50
4 36 39 55 52
4 38 43 59 54
4 40 45 61 56
4 44 46 62 60
4 49 48 64 65
4 51 50 66 67
4 53 52 68 69
4 55 54 70 71
4 57 56 72 73
4 59 58 74 75
4 61 60 76 77
4 62 49 65 78
4 63 51 67 79
4 50 53 69 66
4 52 55 71 68
4 54 59 75 70
4 56 61 77 72
4 60 62 78 76
4 65 64 80 81
4 67 66 82 83
4 69 68 84 85
4 71 70 86 87
4 73 72 88 89
4 75 74 90 91
4 77 76 92 93
4 78 65 81 94
4 79 67 83 95
4 66 69 85 82
4 68 71 87 84
4 70 75 91 86
4 72 77 93 88
4 76 78 94 92
4 81 80 96 97
4 83 82 98 99
4 85 84 100 101
4 87 86 102 103
4 89 88 104 105
4 91 90 106 107
4 93 92 108 109
4 94 81 97 110
4 95 83 99 111
4 82 85 101 98
4 84 87 103 100
4 86 91 107 102
4 88 93 109 104
4 92 94 110 108
4 97 96 112 113
4 99 98 114 115
4 101 100 116 117
4 103 102 118 119
4 105 104 120 121
4 107 106 122 123
4 109 108 124 125
4 110 97 113 126
4 111 99 115 127
4 98 101 117 114
4 100 103 119 116
4 102 107 123 118
4 104 109 125 120
4 108 110 126 124
4 128 129 130 131
4 132 133 134 135
4 136 137 138 139
4 140 141 142 143
4 144 145 146 147
4 148 149 150 151
4 152 153 154 155
4 156 157 158 159
4 160 161 162 163
4 133 136 139 134
4 137 140 143 138
4 141 164 165 142
4 145 152 155 146
4 153 156 159 154
4 166 167 168 169
4 161 132 135 162
4 170 171 172 173
4 174 175 176 177
4 178 179 180 144
4 181 149 182 183
4 184 185 186 187
4 188 166 169 189
4 129 190 191 130
4 190 170 173 191
4 171 174 177 172
4 175 192 193 176
4 194 184 187 195
4 185 188 189 186
4 158 163 196 197
4 135 134 198 199
4 139 138 200 201
4 143 142 202 203
4 147 146 204 205
4 165 183 206 207
4 155 154 208 209
4 159 158 197 210
4 162 135 199 211
4 134 139 201 198
4 138 143 203 200
4 142 165 207 202
4 146 155 209 204
4 154 159 210 208
4 197 196 212 213
4 199 198 214 215
4 201 200 216 217
4 203 202 218 219
4 205 204 220 221
4 207 206 222 223
4 209 208 224 225
4 210 197 213 226
4 211 199 215 227
4 198 201 217 214
4 200 203 219 216
4 202 207 223 218
4 204 209 225 220
4 208 210 226 224
4 213 212 228 229
4 215 214 230 231
4 217 216 232 233
4 219 218 234 235
4 221 220 236 237
4 223 222 238 239
4 225 224 240 241
4 226 213 229 242
4 227 215 231 243
4 214 217 233 230
4 216 219 235 232
4 218 223 239 234
4 220 225 241 236
4 224 226 242 240
4 229 228 244 245
4 231 230 246 247
4 233 232 248 249
4 235 234 250 251
4 237 236 252 253
4 239 238 254 255
4 241 240 256 257
4 242 229 245 258
4 243 231 247 259
4 230 233 249 246
4 232 235 251 248
4 234 239 255 250
4 236 241 257 252
4 240 242 258 256
4 245 244 260 261
4 247 246 262 263
4 249 248 264 265
4 251 250 266 267
4 253 252 268 269
4 255 254 270 271
4 257 256 272 273
4 258 245 261 274
4 259 247 263 275
4 246 249 265 262
4 248 251 267 264
4 250 255 271 266
4 252 257 273 268
4 256 258 274 272
4 261 260 276 277
4 263 262 278 279
4 265 264 280 281
4 267 266 282 283
4 269 268 284 285
4 271 270 286 287
4 273 272 288 289
4 274 261 277 290
4 275 263 279 291
4 262 265 281 278
4 264 267 283 280
4 266 271 287 282
4 268 273 289 284
4 272 274 290 288
4 277 276 292 293
4 279 278 294 295
4 281 280 296 297
4 283 282 298 299
4 285 284 300 301
4 287 286 302 303
4 289 288 304 305
4 290 277 293 306
4 291 279 295 307
4 278 281 297 294
4 280 283 299 296
4 282 287 303 298
4 284 289 305 300
4 288 290 306 304
4 293 292 308 309
4 295 294 310 311
4 297 296 312 313
4 299 298 314 315
4 301 300 316 317
4 303 302 318 319
4 305 304 320 321
4 306 293 309 322
4 307 295 311 323
4 294 297 313 310
4 296 299 315 312
4 298 303 319 314
4 300 305 321 316
4 304 306 322 320
4 309 308 324 325
4 311 310 326 327
4 313 312 328 329
4 315 314 330 331
4 317 316 332 333
4 319 318 334 335
4 321 320 336 337
4 322 309 325 338
4 323 311 327 339
4 310 313 329 326
4 312 315 331 328
4 314 319 335 330
4 316 321 337 332
4 320 322 338 336
4 325 324 340 341
4 327 326 342 343
4 329 328 344 345
4 331 330 346 347
4 333 332 348 349
4 335 334 350 351
4 337 336 352 353
4 338 325 341 354
4 339 327 343 355
4 326 329 345 342
4 328 331 347 344
4 330 335 351 346
4 332 337 353 348
4 336 338 354 352
4 341 340 356 357
4 343 342 358 359
4 345 344 360 361
4 347 346 362 363
4 349 348 364 365
4 351 350 366 367
4 353 352 368 369
4 354 341 357 370
4 355 343 359 371
4 342 345 361 358
4 344 347 363 360
4 346 351 367 362
4 348 353 369 364
4 352 354 370 368
4 357 356 372 373
4 359 358 374 375
4 361 360 376 377
4 363 362 378 379
4 365 364 380 381
4 367 366 382 383
4 369 368 384 385
4 370 357 373 386
4 371 359 375 387
4 358 361 377 374
4 360 363 379 376
4 362 367 383 378
4 364 369 385 380
4 368 370 386 384
4 373 372 388 389
4 375 374 390 391
4 377 376 392 393
4 379 378 394 395
4 381 380 396 397
4 383 382 398 399
4 385 384 400 401
4 386 373 389 402
4 387 375 391 403
4 374 377 393 390
4 376 379 395 392
4 378 383 399 394
4 380 385 401 396
4 384 386 402 400
4 389 388 404 405
4 391 390 406 407
4 393 392 408 409
4 395 394 410 411
4 397 396 412 413
4 399 398 414 415
4 401 400 416 417
4 402 389 405 418
4 403 391 407 419
4 390 393 409 406
4 392 395 411 408
4 394 399 415 410
4 396 401 417 412
4 400 402 418 416
4 420 421 422 423
4 424 425 426 427
4 428 429 430 431
4 432 433 434 435
4 436 437 438 439
4 440 441 442 443
4 444 445 446 447
4 448 449 450 451
4 452 453 454 455
4 425 428 431 426
4 429 432 435 430
4 433 456 457 434
4 437 444 447 438
4 445 448 451 446
4 458 459 460 461
4 453 424 427 454
4 462 463 464 465
4 466 467 468 469
4 470 471 472 436
4 473 441 182 474
4 475 476 477 478
4 479 458 461 480
4 421 481 482 422
4 481 462 465 482
4 463 466 469 464
4 467 483 484 468
4 485 475 478 486
4 476 479 480 477
4 450 455 487 488
4 427 426 489 490
4 431 430 491 492
4 435 434 493 494
4 439 438 495 496
4 457 474 497 498
4 447 446 499 500
4 451 450 488 501
4 454 427 490 502
4 426 431 492 489
4 430 435 494 491
4 434 457 498 493
4 438 447 500 495
4 446 451 501 499
4 488 487 503 504
4 490 489 505 506
4 492 491 507 508
4 494 493 509 510
4 496 495 511 512
4 498 497 513 514
4 500 499 515 516
4 501 488 504 517
4 502 490 506 518
4 489 492 508 505
4 491 494 510 507
4 493 498 514 509
4 495 500 516 511
4 499 501 517 515
4 504 503 519 520
4 506 505 521 522
4 508 507 523 524
4 510 509 525 526
4 512 511 527 528
4 514 513 529 530
4 516 515 531 532
4 517 504 520 533
4 518 506 522 534
4 505 508 524 521
4 507 510 526 523
4 509 514 530 525
4 511 516 532 527
4 515 517 533 531
4 520 519 535 536
4 522 521 537 538
4 524 523 539 540
4 526 525 541 542
4 528 527 543 544
4 530 529 545 546
4 532 531 547 548
4 533 520 536 549
4 534 522 538 550
4 521 524 540 537
4 523 526 542 539
4 525 530 546 541
4 527 532 548 543
4 531 533 549 547
4 536 535 551 552
4 538 537 553 554
4 540 539 555 556
4 542 541 557 558
4 544 543 559 560
4 546 545 561 562
4 548 547 563 564
4 549 536 552 565
4 550 538 554 566
4 537 540 556 553
4 539 542 558 555
4 541 546 562 557
4 543 548 564 559
4 547 549 565 563
4 552 551 567 568
4 554 553 569 570
4 556 555 571 572
4 558 557 573 574
4 560 559 575 576
4 562 561 577 578
4 564 563 579 580
4 565 552 568 581
4 566 554 570 582
4 553 556 572 569
4 555 558 574 571
4 557 562 578 573
4 559 564 580 575
4 563 565 581 579
3 583 4 7
3 9 182 10
3 583 7 41
3 10 182 42
3 583 41 57
3 42 182 58
3 583 57 73
3 58 182 74
3 583 73 89
3 74 182 90
3 583 89 105
3 90 182 106
3 583 105 121
3 106 182 122
4 584 440 443 585
4 164 181 183 165
4 178 194 195 179
4 192 586 587 193
3 583 147 205
3 183 182 206
3 583 205 221
3 206 182 222
3 583 221 237
3 222 182 238
3 583 237 253
3 238 182 254
3 583 253 269
3 254 182 270
3 583 269 285
3 270 182 286
3 583 285 301
3 286 182 302
3 583 301 317
3 302 182 318
3 583 317 333
3 318 182 334
3 583 333 349
3 334 182 350
3 583 349 365
3 350 182 366
3 583 365 381
3 366 182 382
3 583 381 397
3 382 182 398
3 583 397 413
3 398 182 414
4 456 473 474 457
4 470 485 486 471
4 483 584 585 484
3 583 439 496
3 474 182 497
3 583 496 512
3 497 182 513
3 583 512 528
3 513 182 529
3 583 528 544
3 529 182 545
3 583 544 560
3 545 182 561
3 583 560 576
3 561 182 577
4 568 567 30 17
4 570 569 24 21
4 572 571 28 25
4 574 573 1 0
4 576 575 5 4
4 9 8 578 577
4 580 579 13 12
4 581 568 17 16
4 582 570 21 20
4 569 572 25 24
4 571 574 0 28
3 583 576 4
4 573 578 8 1
4 575 580 12 5
3 577 182 9
4 579 581 16 13
4 567 582 20 30
4 551 566 582 567
4 535 550 566 551
4 519 534 550 535
4 503 518 534 519
4 487 502 518 503
4 455 454 502 487
4 459 420 423 460
4 449 452 455 450
4 388 403 419 404
4 372 387 403 388
4 356 371 387 372
4 340 355 371 356
4 324 339 355 340
4 308 323 339 324
4 292 307 323 308
4 276 291 307 292
4 260 275 291 276
4 244 259 275 260
4 228 243 259 244
4 212 227 243 228
4 196 211 227 212
4 163 162 211 196
4 167 128 131 168
4 157 160 163 158
4 96 111 127 112
4 80 95 111 96
4 64 79 95 80
4 48 63 79 64
4 32 47 63 48
4 31 23 47 32
4 30 20 23 31
3 588 589 150
3 589 151 150
3 195 590 179
3 590 180 179
3 591 592 442
3 592 443 442
3 486 593 471
3 593 472 471
4 588 594 595 589
4 589 595 587 151
4 594 596 597 595
4 595 597 193 587
4 596 598 599 597
4 597 599 176 193
4 598 600 601 599
4 599 601 177 176
4 600 602 603 601
4 601 603 172 177
4 602 604 605 603
4 603 605 173 172
4 604 606 607 605
4 605 607 191 173
4 608 609 610 611
4 611 610 131 130
4 609 612 613 610
4 610 613 168 131
4 612 614 615 613
4 613 615 169 168
4 614 616 617 615
4 615 617 189 169
4 616 618 619 617
4 617 619 186 189
4 618 620 621 619
4 619 621 187 186
4 620 180 590 621
4 621 590 195 187
4 591 622 623 592
4 592 623 585 443
4 622 624 625 623
4 623 625 484 585
4 624 626 627 625
4 625 627 468 484
4 626 628 629 627
4 627 629 469 468
4 628 630 631 629
4 629 631 464 469
4 630 632 633 631
4 631 633 465 464
4 632 634 635 633
4 633 635 482 465
4 636 637 638 639
4 639 638 423 422
4 637 640 641 638
4 638 641 460 423
4 640 642 643 641
4 641 643 461 460
4 642 644 645 643
4 643 645 480 461
4 644 646 647 645
4 645 647 477 480
4 646 648 649 647
4 647 649 478 477
4 648 472 593 649
4 649 593 486 478
4 606 608 611 607
4 607 611 130 191
4 634 636 639 635
4 635 639 422 482
4 586 148 151 587
4 640 637 452 449
4 405 404 420 459
4 410 415 584 483
4 583 413 485 470
4 622 591 473 456
4 415 414 440 584
4 417 416 479 476
4 413 412 475 485
4 411 410 483 467
4 409 408 466 463
4 407 406 462 481
4 419 407 481 421
4 416 418 458 479
4 412 417 476 475
4 591 442 441 473
4 583 470 436 439
4 408 411 467 466
4 406 409 463 462
4 636 634 424 453
4 418 405 459 458
4 644 642 448 445
4 648 646 444 437
4 624 622 456 433
4 628 626 432 429
4 632 630 428 425
4 637 636 453 452
4 642 640 449 448
4 646 644 445 444
4 414 182 441 440
4 472 648 437 436
4 626 624 433 432
4 630 628 429 428
4 634 632 425 424
4 404 419 421 420
4 123 122 148 586
4 612 609 160 157
4 113 112 128 167
4 118 123 586 192
4 583 121 194 178
4 594 588 181 164
4 125 124 188 185
4 121 120 184 194
4 119 118 192 175
4 117 116 174 171
4 115 114 170 190
4 127 115 190 129
4 124 126 166 188
4 120 125 185 184
4 588 150 149 181
4 583 178 144 147
4 116 119 175 174
4 114 117 171 170
4 608 606 132 161
4 126 113 167 166
4 616 614 156 153
4 620 618 152 145
4 596 594 164 141
4 600 598 140 137
4 604 602 136 133
4 609 608 161 160
4 614 612 157 156
4 618 616 153 152
4 122 182 149 148
4 180 620 145 144
4 598 596 141 140
4 602 600 137 136
4 606 604 133 132
4 112 127 129 128
